<svg width="128" height="128" viewBox="0 0 128 128" fill="none" xmlns="http://www.w3.org/2000/svg">
<rect width="128" height="127.312" fill="white"/>
<path d="M79.4896 121.755C78.8865 121.512 78.0087 120.572 77.5389 119.666C76.5492 117.758 75.3491 111.938 75.3473 109.038C75.3467 107.941 74.8086 104.798 74.1517 102.053C72.161 93.7384 71.6259 89.7829 72.4232 89.2777C74.0315 88.2587 75.0118 88.9547 76.0124 91.8257C77.9149 97.285 79.2889 100.741 80.5311 103.193C82.1466 106.38 85.2302 111.344 86.0219 112.032C87.7324 113.517 88.8182 115.557 88.8182 117.286C88.8182 118.81 88.4864 119.454 87.0546 120.711C85.5966 121.991 84.8835 122.254 82.9385 122.228C81.6447 122.211 80.0926 121.998 79.4896 121.755ZM69.8988 81.69C68.7813 79.083 66.8658 71.8455 66.8658 70.2301C66.8658 69.5885 66.3995 68.5631 65.8295 67.9513C64.67 66.7067 64.3821 66.7114 52.6467 68.1637C38.1324 69.9599 36.0356 70.4111 25.9546 73.9073C21.7565 75.3632 20.6055 75.5523 15.8828 75.5619C9.65188 75.5745 8.48697 74.9993 8.50011 71.9164C8.51519 68.3866 9.47717 68.0461 20.6206 67.6258C25.0635 67.4583 30.9437 67.0152 33.6878 66.6412C36.4318 66.2672 40.8098 65.6974 43.4167 65.375C46.0235 65.0526 49.9212 64.4735 52.0781 64.0881C54.2351 63.7027 57.5037 63.3874 59.3418 63.3874C61.3293 63.3874 63.0503 63.1194 63.5881 62.7261C64.4545 62.0925 64.4569 61.8884 63.6451 57.8616C61.4667 47.0567 60.462 42.8235 59.0949 38.691C57.9794 35.3187 57.3432 28.7358 57.9614 26.9624C58.857 24.3932 62.407 23.6202 64.2438 25.5944C65.5982 27.0502 65.7435 28.1151 66.3707 41.1856C66.9101 52.427 67.521 58.0957 68.4541 60.5186C68.951 61.8089 69.1646 61.8905 72.0402 61.889C73.7219 61.8882 77.0062 61.5765 79.3387 61.1964C81.6711 60.8163 85.8246 60.2391 88.5687 59.9138C91.3127 59.5885 95.2417 59.0215 97.2997 58.6538C99.3577 58.286 103.174 57.6119 105.781 57.1557C108.388 56.6995 111.809 56.0067 113.382 55.616C117.285 54.6474 118.615 54.7125 119.252 55.9036C119.951 57.2099 119.085 58.8971 117.716 58.8971C117.164 58.8971 115.32 59.217 113.617 59.608C109.041 60.6586 103.495 61.7432 99.5448 62.3601C97.624 62.6601 94.1441 63.2208 91.8116 63.6063C89.4792 63.9917 84.0909 64.6882 79.8376 65.154C75.5843 65.6199 71.8237 66.0795 71.4807 66.1753C70.4858 66.4533 70.7551 70.1944 72.1239 75.112C73.9465 81.6597 74.1184 82.8684 73.3003 83.3864C71.7993 84.3368 70.8251 83.851 69.8988 81.69ZM57.4474 18.7091C55.0891 16.7247 54.2681 14.7619 54.2681 11.1078C54.2681 6.85231 55.3332 5.32409 58.4441 5.11615C60.3569 4.98828 60.8455 5.17413 62.1358 6.52031C63.5174 7.96182 63.635 8.38216 63.7941 12.448C63.9512 16.4611 63.8684 16.9328 62.7963 18.1346C61.0163 20.1299 59.3488 20.309 57.4474 18.7091Z" fill="black"/>
<style>
        path { fill: #000; }
        @media (prefers-color-scheme: dark) {
            path { fill: #FFF; }
        }
    </style>
</svg>
