<svg width="16" height="16" viewBox="0 0 16 16" fill="none" xmlns="http://www.w3.org/2000/svg">
<path fill-rule="evenodd" clip-rule="evenodd" d="M13.7111 1.92485H11.8672V14.0751H13.7111V1.92485ZM9.50939 7.99988C9.50939 9.34278 8.42075 10.4314 7.07785 10.4314C5.73495 10.4314 4.64631 9.34278 4.64631 7.99988C4.64631 6.65698 5.73495 5.56834 7.07785 5.56834C8.42075 5.56834 9.50939 6.65698 9.50939 7.99988ZM11.8666 7.99988C11.8666 10.6447 9.72263 12.7887 7.07785 12.7887C4.43308 12.7887 2.28906 10.6447 2.28906 7.99988C2.28906 5.3551 4.43308 3.21109 7.07785 3.21109C9.72263 3.21109 11.8666 5.3551 11.8666 7.99988Z" fill="currentColor"/>
</svg>
