<svg width="17" height="16" viewBox="0 0 17 16" fill="none" xmlns="http://www.w3.org/2000/svg">
<path d="M2.25522 7.65536C2.25522 9.21955 2.8766 10.7197 3.98264 11.8257C5.08869 12.9318 6.58881 13.5531 8.153 13.5531C9.71719 13.5531 11.2173 12.9318 12.3234 11.8257C13.4294 10.7197 14.0508 9.21955 14.0508 7.65536L8.153 7.65536L2.25522 7.65536Z" fill="currentColor"/>
<path d="M5.23592 4.73717C5.23592 5.51112 5.54337 6.25337 6.09064 6.80063C6.6379 7.34789 7.38015 7.65534 8.15409 7.65534C8.92804 7.65534 9.67029 7.34789 10.2176 6.80063C10.7648 6.25337 11.0723 5.51112 11.0723 4.73717L8.15409 4.73717L5.23592 4.73717Z" fill="currentColor"/>
</svg>
